<?xml version="1.0" encoding="UTF-8"?>
<svg id="Calque_1" xmlns="http://www.w3.org/2000/svg" viewBox="0 0 228.44 307.65">
  <defs>
    <style>
      .cls-1 {
        fill: #fff;
      }
    </style>
  </defs>
  <path class="cls-1" d="M182.55,155.83H56.32c-.98,0-1.4-1.24-.62-1.83L197.92,46.22c.78-.59.36-1.83-.62-1.83h-14.87c-18.61,0-38.42,2.89-53.08,14.35L29.74,135.93c-.67.52-1.65.04-1.65-.81V28.08C28.1,12.91,16.08.55,1.04,0,.47-.02,0,.45,0,1.03v163.6s0,31.58,0,31.58v106.39c0,.56.46,1.02,1.02,1.02h26.06c.56,0,1.02-.46,1.02-1.02v-117.09c0-.56.46-1.02,1.02-1.02l146.65-.34c.05,0,.1,0,.15.01,24.42,3.27,24.42,22.36,24.42,36.87v85.59c0,.56.46,1.02,1.02,1.02h11.1c8.82,0,15.98-7.15,15.98-15.98v-89.96c0-25.34-20.54-45.89-45.89-45.89Z"/>
</svg>