<?xml version="1.0" encoding="UTF-8"?>
<svg xmlns="http://www.w3.org/2000/svg" version="1.1" viewBox="0 0 228.4 307.6">
  <!-- Generator: Adobe Illustrator 28.7.1, SVG Export Plug-In . SVG Version: 1.2.0 Build 142)  -->
  <g>
    <g id="Calque_1">
      <g id="Calque_1-2" data-name="Calque_1">
        <path d="M182.6,155.8H56.3c-1,0-1.4-1.2-.6-1.8L197.9,46.2c.8-.6.4-1.8-.6-1.8h-14.9c-18.6,0-38.4,2.9-53.1,14.3L29.7,135.9c-.7.5-1.6,0-1.6-.8V28.1C28.1,12.9,16.1.5,1,0,.5,0,0,.4,0,1v301.6c0,.6.5,1,1,1h26.1c.6,0,1-.5,1-1v-117.1c0-.6.5-1,1-1l146.6-.3h.1c24.4,3.3,24.4,22.4,24.4,36.9v85.6c0,.6.5,1,1,1h11.1c8.8,0,16-7.1,16-16v-90c0-25.3-20.5-45.9-45.9-45.9h.2Z"/>
      </g>
    </g>
  </g>
</svg>