<?xml version="1.0" encoding="UTF-8"?>
<svg xmlns="http://www.w3.org/2000/svg" version="1.1" viewBox="0 0 333.8 327.1">
  <!-- Generator: Adobe Illustrator 28.7.1, SVG Export Plug-In . SVG Version: 1.2.0 Build 142)  -->
  <g>
    <g id="Calque_1">
      <path d="M322.6,181.1c-.1.4-.3.7-.3,1.1-.5,7.7-2.7,15-6.3,21.8-8.1,15.5-20.5,25.8-37.2,31-.5.2-1,.3-1.6.5,0,.7,0,1.5,0,2.3,1.4,18.6-4.3,34.7-17.2,48.2-9.5,9.9-21.1,15.9-34.7,17.8-16.8,2.4-32-1.4-45.7-11.4-.4-.3-.7-.5-1-.7-17.3,19.2-38.5,26.8-63.8,20.5-21.6-5.4-40.4-23.8-44.7-49.5-24.2-4.6-41.1-18.1-49.6-41.4-7.3-23.7-2.1-44.6,14.4-63-11.2-11.7-17.2-25.7-17.6-42-.3-11.5,2.5-22.3,8.4-32.2,7.1-12.1,17.3-20.9,30.3-26.1,13.1-5.2,26.4-5.7,40.1-1.8,4.9-16.3,14.5-28.9,29.4-37.2,14.9-8.3,30.6-10,47-5.3,16.4,4.7,28.4,15,36.9,29.8,13.3-6.5,27.2-8.2,41.6-4.9,11,2.5,20.6,7.9,28.7,15.7,4.5,4.4,8.3,9.4,11.3,14.9,3,5.5,5.1,11.4,6.3,17.6,1.2,6.1,1.4,12.3.7,18.5-.7,6.3-2.4,12.3-4.9,18.1.5.4.9.6,1.3.9,15,9.8,24.1,23.6,27.5,41.1.3,1.4.3,2.8.5,4.2,0,.6.2,1.2.3,1.8v9.8ZM93.2,162.9c.3,3.3.5,6.9,1.1,10.4,2.6,16,9.9,29.6,22.1,40.2,19.6,17.1,42.4,22.2,67.4,15.2,28.7-8,48.6-33.6,50.2-62.2.7-12.3-1.7-23.9-7.3-34.8-11.5-22.6-34.4-36.8-58.9-38.1-13.6-.7-26.5,1.9-38.2,8.6-23.2,13.3-35.1,33.5-36.3,60.6Z"/>
      <path d="M132.1,156.5c0-3.2.5-6.2,1.8-9.1.5-1.2,1.3-2.3,2.1-3.2,1.8-1.9,4.1-1.9,5.8,0,1,1.1,1.9,2.4,2.4,3.8,2.1,5.8,2.1,11.6,0,17.4-.5,1.3-1.3,2.5-2.2,3.5-1.8,2-4.1,1.9-5.9,0-1.4-1.3-2.1-3-2.7-4.8-.3-1-.6-2-.7-3-.2-1.6-.3-3.1-.5-4.7Z"/>
      <path d="M181.6,156.5c0-3.2.5-6.2,1.8-9.1.6-1.3,1.4-2.5,2.4-3.5,1.6-1.6,3.8-1.6,5.4,0,1,1,1.8,2.2,2.3,3.5,2.4,6,2.4,12.1,0,18.1-.4.9-.9,1.8-1.5,2.6-2.2,2.8-5.1,2.8-7.2,0-.9-1.2-1.5-2.8-2.1-4.2-.4-.9-.6-2-.7-2.9-.2-1.5-.3-3-.5-4.5Z"/>
    </g>
  </g>
</svg>