<?xml version="1.0" encoding="UTF-8"?>
<svg xmlns="http://www.w3.org/2000/svg" version="1.1" viewBox="0 0 566.9 566.9">
  <!-- Generator: Adobe Illustrator 28.7.1, SVG Export Plug-In . SVG Version: 1.2.0 Build 142)  -->
  <g>
    <g id="Calque_1">
      <g>
        <path d="M484.1,315.6c-.1.4-.3.9-.4,1.3-.5,9.1-3.2,17.7-7.4,25.7-9.5,18.2-24.2,30.4-43.9,36.6-.6.2-1.1.4-1.9.6,0,.9,0,1.8,0,2.7,1.6,22-5.1,41-20.3,56.9-11.2,11.7-24.9,18.7-41,21.1-19.8,2.9-37.8-1.7-54-13.4-.4-.3-.9-.6-1.2-.9-20.4,22.7-45.4,31.6-75.3,24.2-25.4-6.3-47.7-28.1-52.8-58.4-28.6-5.4-48.5-21.3-58.6-48.9-8.6-28-2.4-52.6,17-74.4-13.2-13.8-20.3-30.3-20.8-49.6-.3-13.6,3-26.3,9.9-38,8.4-14.3,20.4-24.7,35.8-30.8,15.4-6.2,31.2-6.7,47.3-2.2,5.8-19.3,17.2-34.2,34.7-43.9,17.5-9.8,36.2-11.8,55.4-6.2,19.3,5.6,33.6,17.7,43.6,35.2,15.7-7.7,32.1-9.7,49.1-5.8,13,3,24.3,9.3,33.9,18.6,5.4,5.2,9.8,11.1,13.3,17.6,3.5,6.6,6,13.5,7.4,20.8,1.4,7.3,1.6,14.5.8,21.9-.8,7.4-2.8,14.5-5.8,21.3.6.4,1.1.8,1.6,1.1,17.7,11.6,28.5,27.8,32.5,48.6.3,1.6.3,3.3.5,5,0,.7.3,1.4.4,2.1v11.6ZM213.3,294.1c.4,3.9.6,8.1,1.3,12.3,3,18.9,11.7,35,26.1,47.5,23.2,20.2,50,26.2,79.6,17.9,33.9-9.5,57.4-39.6,59.2-73.4.8-14.5-2-28.2-8.6-41.1-13.6-26.6-40.6-43.4-69.5-44.9-16-.8-31.2,2.2-45.1,10.2-27.4,15.7-41.5,39.6-42.9,71.5Z"/>
        <path d="M83.4,187.2c9.8,3.4,19.4,6.7,29.1,10.1-.4,1.1-.6,1.9-1,3-7.7-2.7-15.3-5.3-22.9-7.9,0,.1-.1.2-.2.3,6.3,6.4,12.7,12.8,19,19.2-.3.9-.6,1.8-1,2.9-8.9,1.1-17.9,2.2-26.8,3.3,1.7,1.2,3.6,1.7,5.5,2.4,1.9.7,3.8,1.3,5.7,2,1.9.7,3.9,1.4,5.8,2,1.9.7,3.7,1.3,5.8,2-.4,1-.7,1.9-1.1,3-9.7-3.4-19.4-6.7-29.2-10.1.4-1.1.6-2.1,1-2.9.2-.4.9-.7,1.5-.8,4.7-.6,9.4-1.1,14.1-1.7,4.7-.6,9.5-1.2,14.5-1.8-.4-.6-.7-1-1-1.3-6.1-6.1-12.2-12.3-18.3-18.4-2-2-2-1.3-1-4.3.1-.3.3-.6.5-1.1Z"/>
        <path d="M74.7,244.8c.6.3,1.1.6,1.7.9,6.9,3.6,13.8,7.2,20.7,10.8,1.6.8,2,1.7,1.5,3.3-.2.5-.9,1-1.4,1.2-4.1,1.9-8.2,3.8-12.3,5.7-3.2,1.5-6.4,2.9-9.6,4.4-.4.2-.8.4-1.2.8,4,.6,7.9.4,11.9.5,4,.2,8,.3,12.2.4v3.1c-10.3-.3-20.4-.6-30.8-.9,0-1.1,0-2.1,0-3,0-.4.5-.9,1-1.1,1.6-.8,3.3-1.5,4.9-2.3,6.7-3,13.3-6.1,20-9.1.5-.2,1-.5,1.8-.9-9.1-4.9-18-9.4-26.9-14.1,0-1.2.1-2.3.2-3.7,10.4.3,20.6.6,30.9.9,0,.9,0,1.6,0,2.2,0,.3-.1.5-.2.9-8-.2-16-.4-23.9-.7,0,.1,0,.2-.1.4Z"/>
        <path d="M161.9,102.9c.6-.3.9-.5,1.2-.7,1.1-.7,2-.6,3.1.2,7,4.6,14.1,9,21.2,13.5.6.4,1.1.7,1.8.9-3.2-7.4-6.8-14.7-10.3-22.2,1-.5,1.8-.9,2.8-1.4,4.4,9.3,8.8,18.5,13.2,27.9-.4.3-.8.5-1.2.8-1,.7-1.9.5-2.9-.1-5.4-3.5-10.8-6.9-16.2-10.3-2.3-1.5-4.7-3-7.3-4.2,3.5,7.3,7,14.7,10.5,22.2-1,.5-1.8.9-2.9,1.4-4.4-9.3-8.8-18.5-13.3-27.9Z"/>
        <path d="M156.7,131.8c3.3,1.4,6.5,2.7,10.1,4.2-1,.8-1.7,1.4-2.5,1.8-.4.2-1.2.1-1.6,0-2.6-1.1-5.1-2.2-7.8-3.3-1.7,1.4-3.5,2.8-5.4,4.4,1.6,2.2,3.2,4.3,4.9,6.6-.9.7-1.6,1.2-2.5,1.9-6.2-8.2-12.3-16.4-18.8-25,.4-.2.8-.4,1.2-.7,1.6-1.1,3.1-2.3,4.7-3.4,1.9-1.3,4-2.3,6.4-2.6,2.9-.3,5.4.5,7.6,2.4,3.2,2.8,5.1,6.3,4.5,10.7-.1,1-.5,1.9-.8,3.1ZM147.6,136.2c1.3-1,2.4-1.7,3.3-2.6.9-.9,1.8-1.8,2.4-2.9,1.7-2.8,1.3-6-1-8.9-2.3-2.9-5.2-3.8-8.5-2.8-2.4.8-4.3,2.4-6.2,4,3.3,4.4,6.5,8.7,9.9,13.1Z"/>
        <path d="M93.1,170.1c.6-1,1.1-1.8,1.7-2.8,10.9,1.9,21.7,3.7,32.7,5.6-.6,1.1-1.1,1.9-1.7,2.8-1.8-.3-3.6-.6-5.5-.9-3,4.9-5.9,9.8-8.9,14.8,1.1,1.5,2.1,2.9,3.3,4.5-.5.8-1,1.7-1.5,2.5-1.3-.9-16.6-20.9-20.2-26.5ZM109.5,187c2.2-2.8,7.2-11.4,7.5-12.8-6.4-1.1-12.8-2.2-19.2-3.3l-.2.3c4,5.3,8,10.5,12,15.9Z"/>
        <path d="M206.8,85.5c1.1-.3,1.9-.5,3-.8,2.9,9.9,5.7,19.7,8.6,29.7-1,.3-1.9.6-3,.9-1.4-4.6-2.7-9.2-4.1-14-4.7,1.3-9.2,2.7-14,4,1.3,4.6,2.6,9.2,4,13.9-1,.3-1.9.6-3,1-2.9-10-5.7-19.8-8.6-29.6.4-.2.6-.4.9-.4.6-.2,1.3-.3,2.1-.5,1.2,4.2,2.4,8.3,3.7,12.6,4.7-1.1,9.2-2.6,14-3.9-1.2-4.3-2.4-8.5-3.6-12.8Z"/>
        <path d="M70,292.6c5.3,2.8,10.4,5.5,15.6,8.3,4.5-5.8,8.9-11.5,13.7-17.5.3,1.5.7,2.5.8,3.7,0,.5-.5,1-.8,1.5-3.6,4.5-7.2,8.9-10.7,13.4-.3.4-.6.8-1.2,1.6,5.4-1.1,10.5-2.2,15.7-3.3.2,1.1.4,2,.6,3.1-10.1,2.2-20.1,4.3-30.1,6.4-.2-.6-.3-1-.4-1.4-.1-.4-.2-.9-.3-1.6,4-.9,8-1.8,12.4-2.7-.7-.5-1.1-.7-1.5-1-3.7-1.9-7.3-3.8-11-5.6-2.4-1.2-2.6-1.5-2.6-4.8Z"/>
        <path d="M123.7,135.6c-1.8,1.7-3.4,3.3-5,4.9-.8-.7-1.5-1.3-2.3-2,4.3-4.2,8.4-8.2,12.6-12.3.8.8,1.4,1.4,2.4,2.4-1.9,1.7-3.6,3.2-5.5,4.8,6.7,6.8,13.1,13.4,19.6,20.1-.8.8-1.5,1.4-2.3,2.2-6.5-6.7-13-13.3-19.5-20Z"/>
        <path d="M130.8,169.6c-.7.9-1.2,1.6-1.9,2.5-8.2-6.3-16.3-12.5-24.6-18.8.7-.9,1.2-1.6,1.9-2.5,8.2,6.3,16.3,12.4,24.6,18.8Z"/>
        <path d="M153.4,108.4c.4-.3.6-.5.9-.7.5-.3,1-.6,1.8-1,5.4,8.7,10.7,17.4,16.2,26.3-.9.6-1.7,1.1-2.7,1.7-5.4-8.8-10.8-17.5-16.1-26.3Z"/>
        <path d="M99.4,279.4c.1,1.2.2,2.1.3,3.2-10.2,1.2-20.3,2.4-30.6,3.6-.1-1.1-.2-2-.4-3.1,10.3-1.2,20.4-2.4,30.7-3.6Z"/>
        <path d="M259.3,286.5c0-3.7.6-7.3,2.2-10.7.6-1.4,1.5-2.7,2.5-3.8,2.1-2.2,4.8-2.3,6.8,0,1.2,1.3,2.3,2.9,2.9,4.5,2.5,6.8,2.5,13.7,0,20.5-.6,1.5-1.5,3-2.6,4.2-2.1,2.3-4.8,2.3-7,0-1.6-1.6-2.5-3.6-3.2-5.7-.4-1.1-.7-2.3-.8-3.5-.3-1.8-.4-3.7-.6-5.5Z"/>
        <path d="M317.6,286.6c0-3.7.6-7.3,2.2-10.7.7-1.5,1.6-2.9,2.8-4.1,1.9-1.9,4.5-1.9,6.4,0,1.1,1.2,2.2,2.6,2.8,4.1,2.8,7.1,2.8,14.3,0,21.4-.4,1.1-1.1,2.2-1.8,3.1-2.6,3.3-6,3.3-8.5,0-1.1-1.5-1.8-3.2-2.5-5-.4-1.1-.7-2.3-.8-3.5-.3-1.8-.4-3.6-.6-5.4Z"/>
      </g>
    </g>
  </g>
</svg>